<?xml version="1.0" encoding="UTF-8" standalone="no"?>
<svg
   xmlns:dc="http://purl.org/dc/elements/1.1/"
   xmlns:cc="http://creativecommons.org/ns#"
   xmlns:rdf="http://www.w3.org/1999/02/22-rdf-syntax-ns#"
   xmlns:svg="http://www.w3.org/2000/svg"
   xmlns="http://www.w3.org/2000/svg"
   viewBox="0 0 575.51251 201.25"
   height="201.25"
   width="575.51251"
   xml:space="preserve"
   version="1.1"
   id="svg2"><metadata
     id="metadata8"><rdf:RDF><cc:Work
         rdf:about=""><dc:format>image/svg+xml</dc:format><dc:type
           rdf:resource="http://purl.org/dc/dcmitype/StillImage" /></cc:Work></rdf:RDF></metadata><defs
     id="defs6" /><g
     transform="matrix(1.25,0,0,-1.25,0,201.25)"
     id="g10"><g
       transform="scale(0.1,0.1)"
       id="g12"><path
         id="path14"
         style="fill:#3796a6;fill-opacity:1;fill-rule:nonzero;stroke:none"
         d="m 700.555,595 c -38.75,0 -468.75,0 -468.75,0 0,0 -45,-2.5 -45,41.258 0,59.277 0,118.555 0,177.836 0,36.89 0,73.785 0,110.687 0,39.297 -10.973,90.219 45,90.219 0.035,0 470,0 470,0 0,0 35,2.5 35,-35 0,-37.5 0,-350 0,-350 0,0 2.5,-35 -36.25,-35 z m 50.836,620 c -158.461,0 -553.395,-4.89 -553.395,-4.89 l -1.906,374.99 c -0.055,11.01 -8.992,19.9 -19.996,19.9 l -149.2893,0 c -11.043,0 -20.00001,-8.95 -20.00001,-20 l 0,-746.742 C 6.80469,692.137 -26.8086,395 195.988,395 c 172.457,0 344.91,-0.039 517.367,-0.309 98.75,-0.16 213.45,69.789 213.45,179.481 0,119.199 0,238.398 0,357.601 0,139.087 6.328,283.227 -175.414,283.227" /><path
         id="path16"
         style="fill:none;stroke:#3796a6;stroke-width:10;stroke-linecap:butt;stroke-linejoin:miter;stroke-miterlimit:10;stroke-dasharray:none;stroke-opacity:1"
         d="m 700.555,595 c -38.75,0 -468.75,0 -468.75,0 0,0 -45,-2.5 -45,41.258 0,59.277 0,118.555 0,177.836 0,36.89 0,73.785 0,110.687 0,39.297 -10.973,90.219 45,90.219 0.035,0 470,0 470,0 0,0 35,2.5 35,-35 0,-37.5 0,-350 0,-350 0,0 2.5,-35 -36.25,-35 z m 50.836,620 c -158.461,0 -553.395,-4.89 -553.395,-4.89 l -1.906,374.99 c -0.055,11.01 -8.992,19.9 -19.996,19.9 l -149.2893,0 c -11.043,0 -20.00001,-8.95 -20.00001,-20 l 0,-746.742 C 6.80469,692.137 -26.8086,395 195.988,395 c 172.457,0 344.91,-0.039 517.367,-0.309 98.75,-0.16 213.45,69.789 213.45,179.481 0,119.199 0,238.398 0,357.601 0,139.087 6.328,283.227 -175.414,283.227 z" /><path
         id="path18"
         style="fill:#3796a6;fill-opacity:1;fill-rule:nonzero;stroke:none"
         d="m 2206.81,979.684 c 0,0 0,-312.5 0,-350 0,-37.504 -33.2,-34.684 -33.2,-34.684 0,0 -469.96,0 -470,0 -55.97,0 -46.8,50.605 -46.8,89.902 0,36.903 0,73.797 0,110.692 0,59.277 0,118.554 0,177.832 0,43.754 46.8,41.574 46.8,41.574 0,0 430,0 468.75,0 38.75,0 34.45,-35.316 34.45,-35.316 z m 190,-301.774 c 0,119.203 0,238.403 0,357.61 0,109.68 -114.25,179.64 -213,179.48 -172.46,-0.28 -344.46,-0.32 -516.92,-0.32 -222.8,0 -190.08,-297.129 -190.08,-443.254 l 0,-746.426 c 0,-11.0508 8.95,-20 20,-20 l 151.07,0 c 11.01,0 19.95,8.9102 20,19.9219 l 1.47,374.8081 c 0,0 394.48,-4.968 552.94,-4.968 181.74,0 174.52,144.07 174.52,283.148" /><path
         id="path20"
         style="fill:none;stroke:#3796a6;stroke-width:10;stroke-linecap:butt;stroke-linejoin:miter;stroke-miterlimit:10;stroke-dasharray:none;stroke-opacity:1"
         d="m 2206.81,979.684 c 0,0 0,-312.5 0,-350 0,-37.504 -33.2,-34.684 -33.2,-34.684 0,0 -469.96,0 -470,0 -55.97,0 -46.8,50.605 -46.8,89.902 0,36.903 0,73.797 0,110.692 0,59.277 0,118.554 0,177.832 0,43.754 46.8,41.574 46.8,41.574 0,0 430,0 468.75,0 38.75,0 34.45,-35.316 34.45,-35.316 z m 190,-301.774 c 0,119.203 0,238.403 0,357.61 0,109.68 -114.25,179.64 -213,179.48 -172.46,-0.28 -344.46,-0.32 -516.92,-0.32 -222.8,0 -190.08,-297.129 -190.08,-443.254 l 0,-746.426 c 0,-11.0508 8.95,-20 20,-20 l 151.07,0 c 11.01,0 19.95,8.9102 20,19.9219 l 1.47,374.8081 c 0,0 394.48,-4.968 552.94,-4.968 181.74,0 174.52,144.07 174.52,283.148 z" /><path
         id="path22"
         style="fill:#3796a6;fill-opacity:1;fill-rule:nonzero;stroke:none"
         d="m 1381.86,595 c -21.59,0 -46.85,-2.078 -66.36,9.031 -24.45,13.914 -27.54,48.903 -28.63,74.125 -1.28,29.723 -0.25,59.739 -0.48,89.496 -0.6,78.395 -1.43,156.789 -2.28,235.188 -0.66,61.34 -1.36,122.67 -2.09,184.01 0,0.01 0,0.02 0,0.03 -0.11,10.02 -8.26,18.12 -18.28,18.12 l -166.93,0 c -11.05,0 -20,-8.95 -20,-20 l 0,-294.707 c 0,-72.754 -0.12,-145.508 0.1,-218.266 0.2,-64.605 2.41,-132.738 37.81,-189.168 44.05,-70.211 118.99,-87.789 196.88,-87.859 55.07,-0.051 110.14,0.012 165.21,0 l 0,0 -1.81,200 c -31.05,0 -62.09,0 -93.14,0" /><path
         id="path24"
         style="fill:none;stroke:#3796a6;stroke-width:10;stroke-linecap:butt;stroke-linejoin:miter;stroke-miterlimit:10;stroke-dasharray:none;stroke-opacity:1"
         d="m 1381.86,595 c -21.59,0 -46.85,-2.078 -66.36,9.031 -24.45,13.914 -27.54,48.903 -28.63,74.125 -1.28,29.723 -0.25,59.739 -0.48,89.496 -0.6,78.395 -1.43,156.789 -2.28,235.188 -0.66,61.34 -1.36,122.67 -2.09,184.01 0,0.01 0,0.02 0,0.03 -0.11,10.02 -8.26,18.12 -18.28,18.12 l -166.93,0 c -11.05,0 -20,-8.95 -20,-20 l 0,-294.707 c 0,-72.754 -0.12,-145.508 0.1,-218.266 0.2,-64.605 2.41,-132.738 37.81,-189.168 44.05,-70.211 118.99,-87.789 196.88,-87.859 55.07,-0.051 110.14,0.012 165.21,0 l 0,0 -1.81,200 c -31.05,0 -62.09,0 -93.14,0 z" /><path
         id="path26"
         style="fill:#3796a6;fill-opacity:1;fill-rule:nonzero;stroke:none"
         d="m 3201.86,605 c -21.59,0 -46.85,-2.078 -66.36,9.031 -24.45,13.914 -27.54,48.903 -28.63,74.125 -1.28,29.723 -0.25,59.739 -0.48,89.496 -0.6,78.395 -1.43,156.789 -2.28,235.188 -0.66,61.34 -1.36,122.67 -2.09,184.01 0,0.01 0,0.02 0,0.03 -0.11,10.02 -8.26,18.12 -18.28,18.12 l -166.93,0 c -11.05,0 -20,-8.95 -20,-20 l 0,-294.707 c 0,-72.754 -0.12,-145.508 0.1,-218.266 0.2,-64.605 2.41,-132.738 37.81,-189.168 44.05,-70.211 118.99,-87.789 196.88,-87.859 51.69,-0.039 232.4,0 284.01,0 0.88,1.641 0.67,1.238 1.55,2.891 L 3295,605 c -31.05,0 -62.09,0 -93.14,0" /><path
         id="path28"
         style="fill:none;stroke:#3796a6;stroke-width:10;stroke-linecap:butt;stroke-linejoin:miter;stroke-miterlimit:10;stroke-dasharray:none;stroke-opacity:1"
         d="m 3201.86,605 c -21.59,0 -46.85,-2.078 -66.36,9.031 -24.45,13.914 -27.54,48.903 -28.63,74.125 -1.28,29.723 -0.25,59.739 -0.48,89.496 -0.6,78.395 -1.43,156.789 -2.28,235.188 -0.66,61.34 -1.36,122.67 -2.09,184.01 0,0.01 0,0.02 0,0.03 -0.11,10.02 -8.26,18.12 -18.28,18.12 l -166.93,0 c -11.05,0 -20,-8.95 -20,-20 l 0,-294.707 c 0,-72.754 -0.12,-145.508 0.1,-218.266 0.2,-64.605 2.41,-132.738 37.81,-189.168 44.05,-70.211 118.99,-87.789 196.88,-87.859 51.69,-0.039 232.4,0 284.01,0 0.88,1.641 0.67,1.238 1.55,2.891 L 3295,605 c -31.05,0 -62.09,0 -93.14,0 z" /><path
         id="path30"
         style="fill:#3796a6;fill-opacity:1;fill-rule:nonzero;stroke:none"
         d="m 1256.79,1404.98 -160.01,0 c -11.05,0 -20,8.96 -20,20 l 0,160.02 c 0,11.05 8.95,20 20,20 l 160.01,0 c 11.05,0 20,-8.95 20,-20 l 0,-160.02 c 0,-11.04 -8.95,-20 -20,-20" /><path
         id="path32"
         style="fill:none;stroke:#3796a6;stroke-width:10;stroke-linecap:butt;stroke-linejoin:miter;stroke-miterlimit:10;stroke-dasharray:none;stroke-opacity:1"
         d="m 1256.79,1404.98 -160.01,0 c -11.05,0 -20,8.96 -20,20 l 0,160.02 c 0,11.05 8.95,20 20,20 l 160.01,0 c 11.05,0 20,-8.95 20,-20 l 0,-160.02 c 0,-11.04 -8.95,-20 -20,-20 z" /><path
         id="path34"
         style="fill:#3796a6;fill-opacity:1;fill-rule:nonzero;stroke:none"
         d="m 3076.79,1404.98 -160.01,0 c -11.05,0 -20,8.96 -20,20 l 0,160.02 c 0,11.05 8.95,20 20,20 l 160.01,0 c 11.05,0 20,-8.95 20,-20 l 0,-160.02 c 0,-11.04 -8.95,-20 -20,-20" /><path
         id="path36"
         style="fill:none;stroke:#3796a6;stroke-width:10;stroke-linecap:butt;stroke-linejoin:miter;stroke-miterlimit:10;stroke-dasharray:none;stroke-opacity:1"
         d="m 3076.79,1404.98 -160.01,0 c -11.05,0 -20,8.96 -20,20 l 0,160.02 c 0,11.05 8.95,20 20,20 l 160.01,0 c 11.05,0 20,-8.95 20,-20 l 0,-160.02 c 0,-11.04 -8.95,-20 -20,-20 z" /><path
         id="path38"
         style="fill:#3796a6;fill-opacity:1;fill-rule:nonzero;stroke:none"
         d="m 2726.79,394.98 -160.01,0 c -11.05,0 -20,8.95 -20,20 l 0,160.008 c 0,11.051 8.95,20 20,20 l 160.01,0 c 11.05,0 20,-8.949 20,-20 l 0,-160.008 c 0,-11.05 -8.95,-20 -20,-20" /><path
         id="path40"
         style="fill:none;stroke:#3796a6;stroke-width:10;stroke-linecap:butt;stroke-linejoin:miter;stroke-miterlimit:10;stroke-dasharray:none;stroke-opacity:1"
         d="m 2726.79,394.98 -160.01,0 c -11.05,0 -20,8.95 -20,20 l 0,160.008 c 0,11.051 8.95,20 20,20 l 160.01,0 c 11.05,0 20,-8.949 20,-20 l 0,-160.008 c 0,-11.05 -8.95,-20 -20,-20 z" /><path
         id="path42"
         style="fill:#3796a6;fill-opacity:1;fill-rule:nonzero;stroke:none"
         d="m 3990.56,595 c -38.75,0 -468.75,0 -468.75,0 0,0 -45,-2.5 -45,41.258 0,59.277 0,118.555 0,177.836 0,36.89 0,73.785 0,110.687 0,39.297 -10.98,90.219 45,90.219 0.03,0 470,0 470,0 0,0 35,2.5 35,-35 0,-37.5 0,-350 0,-350 0,0 2.5,-35 -36.25,-35 z m 206.82,25.977 c -0.27,134.902 -0.54,269.8 -0.81,404.703 -0.08,43.39 -1.24,90.16 -27.31,124.84 -37.6,50.04 -109.7,54.5 -172.29,54.48 -180.55,-0.07 -361.1,-0.13 -541.66,-0.2 -7.8,0 -15.65,-0.01 -23.49,-0.21 -21.44,-0.55 -42.81,-2.52 -62.93,-9.63 -92.45,-32.64 -73.03,-157.68 -72.85,-234.8 0.3,-127.484 0.59,-254.969 0.89,-382.449 0.07,-31.402 0.32,-63.723 12.21,-92.77 11.41,-27.863 33.52,-51.179 60.74,-64.05 32.37,-15.301 69.52,-15.629 105.32,-15.672 179.71,-0.207 359.41,-0.41 539.12,-0.617 39.84,-0.043 82.09,0.558 115.84,21.738 30.44,19.09 49.45,52.711 58.38,87.512 8.93,34.808 8.91,71.199 8.84,107.125" /><path
         id="path44"
         style="fill:none;stroke:#3796a6;stroke-width:10;stroke-linecap:butt;stroke-linejoin:miter;stroke-miterlimit:10;stroke-dasharray:none;stroke-opacity:1"
         d="m 3990.56,595 c -38.75,0 -468.75,0 -468.75,0 0,0 -45,-2.5 -45,41.258 0,59.277 0,118.555 0,177.836 0,36.89 0,73.785 0,110.687 0,39.297 -10.98,90.219 45,90.219 0.03,0 470,0 470,0 0,0 35,2.5 35,-35 0,-37.5 0,-350 0,-350 0,0 2.5,-35 -36.25,-35 z m 206.82,25.977 c -0.27,134.902 -0.54,269.8 -0.81,404.703 -0.08,43.39 -1.24,90.16 -27.31,124.84 -37.6,50.04 -109.7,54.5 -172.29,54.48 -180.55,-0.07 -361.1,-0.13 -541.66,-0.2 -7.8,0 -15.65,-0.01 -23.49,-0.21 -21.44,-0.55 -42.81,-2.52 -62.93,-9.63 -92.45,-32.64 -73.03,-157.68 -72.85,-234.8 0.3,-127.484 0.59,-254.969 0.89,-382.449 0.07,-31.402 0.32,-63.723 12.21,-92.77 11.41,-27.863 33.52,-51.179 60.74,-64.05 32.37,-15.301 69.52,-15.629 105.32,-15.672 179.71,-0.207 359.41,-0.41 539.12,-0.617 39.84,-0.043 82.09,0.558 115.84,21.738 30.44,19.09 49.45,52.711 58.38,87.512 8.93,34.808 8.91,71.199 8.84,107.125 z" /><g
         transform="scale(10,10)"
         id="g46"><text
           id="text48"
           style="font-variant:normal;font-weight:bold;font-size:18px;font-family:Helvetica;-inkscape-font-specification:Helvetica-Bold;writing-mode:lr-tb;fill:#3796a6;fill-opacity:1;fill-rule:nonzero;stroke:none"
           transform="matrix(1,0,0,-1,431.181,106)"><tspan
             id="tspan50"
             y="0"
             x="0 12.615189">TM</tspan></text>
</g></g></g></svg>